#Comment line ignore any data following # character 
#Hierarchical Translation and Rotation (.htr) file 
[Header]	
#Header keywords are followed by a single value 
FileType HTR		#Single word string
DataType HTRS		#Translation followed by rotation and scale data
FileVersion 1		#integer
NumSegments 84		#integer
NumFrames 2		#integer
DataFrameRate 30		#integer, data frame rate in this file
EulerRotationOrder ZYX
CalibrationUnits mm
RotationUnits Degrees
GlobalAxisofGravity Y
BoneLengthAxis Y
ScaleFactor 1.00
[SegmentNames&Hierarchy]
#CHILD	PARENT
MASTER GLOBAL
root MASTER
chest root
L_mid_tent01 root
R_mid_tent01 root
spine01 root
Bip01_Neck chest
L_humerus chest
R_humerus chest
weapon_bone chest
Bip01_Head Bip01_Neck
eye_left_bone Bip01_Head
eye_right_bone Bip01_Head
L_forearm L_humerus
L_front_hand L_forearm
L_weapon_bone L_forearm
L_front_hand01_01 L_front_hand
L_front_hand02_01 L_front_hand
L_front_hand03_01 L_front_hand
L_front_hand01_02 L_front_hand01_01
L_front_hand02_02 L_front_hand02_01
L_front_hand03_02 L_front_hand03_01
R_forearm R_humerus
R_front_hand R_forearm
R_weapon_bone R_forearm
R_front_hand01_01 R_front_hand
R_front_hand02_01 R_front_hand
R_front_hand03_01 R_front_hand
R_front_hand01_02 R_front_hand01_01
R_front_hand02_02 R_front_hand02_01
R_front_hand03_02 R_front_hand03_01
null_rope01_connect L_mid_tent01
Rope1_Seg01 null_rope01_connect
Rope1_Seg02 Rope1_Seg01
Rope1_Seg03 Rope1_Seg02
Rope1_Seg04 Rope1_Seg03
Rope1_Seg05 Rope1_Seg04
Rope1_Seg06 Rope1_Seg05
Rope1_Seg07 Rope1_Seg06
Rope1_Seg09 Rope1_Seg07
L_mid_hand01 Rope1_Seg09
L_mid_hand02 Rope1_Seg09
L_mid_hand03 Rope1_Seg09
null_rope02_connect R_mid_tent01
Rope2_Seg01 null_rope02_connect
Rope2_Seg02 Rope2_Seg01
Rope2_Seg03 Rope2_Seg02
Rope2_Seg04 Rope2_Seg03
Rope2_Seg05 Rope2_Seg04
Rope2_Seg06 Rope2_Seg05
Rope2_Seg07 Rope2_Seg06
Rope2_Seg09 Rope2_Seg07
R_mid_hand01 Rope2_Seg09
R_mid_hand02 Rope2_Seg09
R_mid_hand03 Rope2_Seg09
spine02 spine01
spine03 spine02
pelvis spine03
null_rope03_connect pelvis
null_rope04_connect pelvis
Rope3_Seg01 null_rope03_connect
Rope3_Seg02 Rope3_Seg01
Rope3_Seg03 Rope3_Seg02
Rope3_Seg04 Rope3_Seg03
Rope3_Seg05 Rope3_Seg04
Rope3_Seg06 Rope3_Seg05
Rope3_Seg07 Rope3_Seg06
Rope3_Seg08 Rope3_Seg07
Rope3_Seg09 Rope3_Seg08
R_rear_hand01 Rope3_Seg09
R_rear_hand02 Rope3_Seg09
R_rear_hand03 Rope3_Seg09
Rope4_Seg01 null_rope04_connect
Rope4_Seg02 Rope4_Seg01
Rope4_Seg03 Rope4_Seg02
Rope4_Seg04 Rope4_Seg03
Rope4_Seg05 Rope4_Seg04
Rope4_Seg06 Rope4_Seg05
Rope4_Seg07 Rope4_Seg06
Rope4_Seg08 Rope4_Seg07
Rope4_Seg09 Rope4_Seg08
L_rear_hand01 Rope4_Seg09
L_rear_hand02 Rope4_Seg09
L_rear_hand03 Rope4_Seg09
[BasePosition]
#SegmentName Tx, Ty, Tz, Rx, Ry, Rz, BoneLength
MASTER 0.000000 0.000000 0.000000 -90.000000 0.000000 0.000000 10.000000 
root 0.000000 0.000000 0.000000 0.000000 0.000000 0.000000 10.000000 
chest 0.000000 0.000000 0.000000 0.000000 0.000000 0.000000 10.000000 
L_mid_tent01 0.000000 0.000000 0.000000 0.000000 0.000000 0.000000 10.000000 
R_mid_tent01 0.000000 0.000000 0.000000 0.000000 0.000000 0.000000 10.000000 
spine01 0.000000 0.000000 0.000000 0.000000 0.000000 0.000000 10.000000 
Bip01_Neck 0.000000 0.000000 0.000000 0.000000 0.000000 0.000000 10.000000 
L_humerus 0.000000 0.000000 0.000000 0.000000 0.000000 0.000000 10.000000 
R_humerus 0.000000 0.000000 0.000000 0.000000 0.000000 0.000000 10.000000 
weapon_bone 0.000000 0.000000 0.000000 0.000000 0.000000 0.000000 10.000000 
Bip01_Head 0.000000 0.000000 0.000000 0.000000 0.000000 0.000000 10.000000 
eye_left_bone 0.000000 0.000000 0.000000 0.000000 0.000000 0.000000 10.000000 
eye_right_bone 0.000000 0.000000 0.000000 0.000000 0.000000 0.000000 10.000000 
L_forearm 0.000000 0.000000 0.000000 0.000000 0.000000 0.000000 10.000000 
L_front_hand 0.000000 0.000000 0.000000 0.000000 0.000000 0.000000 10.000000 
L_weapon_bone 0.000000 0.000000 0.000000 0.000000 0.000000 0.000000 10.000000 
L_front_hand01_01 0.000000 0.000000 0.000000 0.000000 0.000000 0.000000 10.000000 
L_front_hand02_01 0.000000 0.000000 0.000000 0.000000 0.000000 0.000000 10.000000 
L_front_hand03_01 0.000000 0.000000 0.000000 0.000000 0.000000 0.000000 10.000000 
L_front_hand01_02 0.000000 0.000000 0.000000 0.000000 0.000000 0.000000 10.000000 
L_front_hand02_02 0.000000 0.000000 0.000000 0.000000 0.000000 0.000000 10.000000 
L_front_hand03_02 0.000000 0.000000 0.000000 0.000000 0.000000 0.000000 10.000000 
R_forearm 0.000000 0.000000 0.000000 0.000000 0.000000 0.000000 10.000000 
R_front_hand 0.000000 0.000000 0.000000 0.000000 0.000000 0.000000 10.000000 
R_weapon_bone 0.000000 0.000000 0.000000 0.000000 0.000000 0.000000 10.000000 
R_front_hand01_01 0.000000 0.000000 0.000000 0.000000 0.000000 0.000000 10.000000 
R_front_hand02_01 0.000000 0.000000 0.000000 0.000000 0.000000 0.000000 10.000000 
R_front_hand03_01 0.000000 0.000000 0.000000 0.000000 0.000000 0.000000 10.000000 
R_front_hand01_02 0.000000 0.000000 0.000000 0.000000 0.000000 0.000000 10.000000 
R_front_hand02_02 0.000000 0.000000 0.000000 0.000000 0.000000 0.000000 10.000000 
R_front_hand03_02 0.000000 0.000000 0.000000 0.000000 0.000000 0.000000 10.000000 
null_rope01_connect 0.000000 0.000000 0.000000 0.000000 0.000000 0.000000 10.000000 
Rope1_Seg01 0.000000 0.000000 0.000000 0.000000 0.000000 0.000000 10.000000 
Rope1_Seg02 0.000000 0.000000 0.000000 0.000000 0.000000 0.000000 10.000000 
Rope1_Seg03 0.000000 0.000000 0.000000 0.000000 0.000000 0.000000 10.000000 
Rope1_Seg04 0.000000 0.000000 0.000000 0.000000 0.000000 0.000000 10.000000 
Rope1_Seg05 0.000000 0.000000 0.000000 0.000000 0.000000 0.000000 10.000000 
Rope1_Seg06 0.000000 0.000000 0.000000 0.000000 0.000000 0.000000 10.000000 
Rope1_Seg07 0.000000 0.000000 0.000000 0.000000 0.000000 0.000000 10.000000 
Rope1_Seg09 0.000000 0.000000 0.000000 0.000000 0.000000 0.000000 10.000000 
L_mid_hand01 0.000000 0.000000 0.000000 0.000000 0.000000 0.000000 10.000000 
L_mid_hand02 0.000000 0.000000 0.000000 0.000000 0.000000 0.000000 10.000000 
L_mid_hand03 0.000000 0.000000 0.000000 0.000000 0.000000 0.000000 10.000000 
null_rope02_connect 0.000000 0.000000 0.000000 0.000000 0.000000 0.000000 10.000000 
Rope2_Seg01 0.000000 0.000000 0.000000 0.000000 0.000000 0.000000 10.000000 
Rope2_Seg02 0.000000 0.000000 0.000000 0.000000 0.000000 0.000000 10.000000 
Rope2_Seg03 0.000000 0.000000 0.000000 0.000000 0.000000 0.000000 10.000000 
Rope2_Seg04 0.000000 0.000000 0.000000 0.000000 0.000000 0.000000 10.000000 
Rope2_Seg05 0.000000 0.000000 0.000000 0.000000 0.000000 0.000000 10.000000 
Rope2_Seg06 0.000000 0.000000 0.000000 0.000000 0.000000 0.000000 10.000000 
Rope2_Seg07 0.000000 0.000000 0.000000 0.000000 0.000000 0.000000 10.000000 
Rope2_Seg09 0.000000 0.000000 0.000000 0.000000 0.000000 0.000000 10.000000 
R_mid_hand01 0.000000 0.000000 0.000000 0.000000 0.000000 0.000000 10.000000 
R_mid_hand02 0.000000 0.000000 0.000000 0.000000 0.000000 0.000000 10.000000 
R_mid_hand03 0.000000 0.000000 0.000000 0.000000 0.000000 0.000000 10.000000 
spine02 0.000000 0.000000 0.000000 0.000000 0.000000 0.000000 10.000000 
spine03 0.000000 0.000000 0.000000 0.000000 0.000000 0.000000 10.000000 
pelvis 0.000000 0.000000 0.000000 0.000000 0.000000 0.000000 10.000000 
null_rope03_connect 0.000000 0.000000 0.000000 0.000000 0.000000 0.000000 10.000000 
null_rope04_connect 0.000000 0.000000 0.000000 0.000000 0.000000 0.000000 10.000000 
Rope3_Seg01 0.000000 0.000000 0.000000 0.000000 0.000000 0.000000 10.000000 
Rope3_Seg02 0.000000 0.000000 0.000000 0.000000 0.000000 0.000000 10.000000 
Rope3_Seg03 0.000000 0.000000 0.000000 0.000000 0.000000 0.000000 10.000000 
Rope3_Seg04 0.000000 0.000000 0.000000 0.000000 0.000000 0.000000 10.000000 
Rope3_Seg05 0.000000 0.000000 0.000000 0.000000 0.000000 0.000000 10.000000 
Rope3_Seg06 0.000000 0.000000 0.000000 0.000000 0.000000 0.000000 10.000000 
Rope3_Seg07 0.000000 0.000000 0.000000 0.000000 0.000000 0.000000 10.000000 
Rope3_Seg08 0.000000 0.000000 0.000000 0.000000 0.000000 0.000000 10.000000 
Rope3_Seg09 0.000000 0.000000 0.000000 0.000000 0.000000 0.000000 10.000000 
R_rear_hand01 0.000000 0.000000 0.000000 0.000000 0.000000 0.000000 10.000000 
R_rear_hand02 0.000000 0.000000 0.000000 0.000000 0.000000 0.000000 10.000000 
R_rear_hand03 0.000000 0.000000 0.000000 0.000000 0.000000 0.000000 10.000000 
Rope4_Seg01 0.000000 0.000000 0.000000 0.000000 0.000000 0.000000 10.000000 
Rope4_Seg02 0.000000 0.000000 0.000000 0.000000 0.000000 0.000000 10.000000 
Rope4_Seg03 0.000000 0.000000 0.000000 0.000000 0.000000 0.000000 10.000000 
Rope4_Seg04 0.000000 0.000000 0.000000 0.000000 0.000000 0.000000 10.000000 
Rope4_Seg05 0.000000 0.000000 0.000000 0.000000 0.000000 0.000000 10.000000 
Rope4_Seg06 0.000000 0.000000 0.000000 0.000000 0.000000 0.000000 10.000000 
Rope4_Seg07 0.000000 0.000000 0.000000 0.000000 0.000000 0.000000 10.000000 
Rope4_Seg08 0.000000 0.000000 0.000000 0.000000 0.000000 0.000000 10.000000 
Rope4_Seg09 0.000000 0.000000 0.000000 0.000000 0.000000 0.000000 10.000000 
L_rear_hand01 0.000000 0.000000 0.000000 0.000000 0.000000 0.000000 10.000000 
L_rear_hand02 0.000000 0.000000 0.000000 0.000000 0.000000 0.000000 10.000000 
L_rear_hand03 0.000000 0.000000 0.000000 0.000000 0.000000 0.000000 10.000000 
#Beginning of Data. Separated by tabs
#Fr	Tx	Ty	Tz	Rx	Ry	Rz	SF
[MASTER]
133 -0.000103 747.389038 0.000000 0.001660 0.001660 0.001660 747.389038
134 -0.000108 785.139587 0.000000 0.001660 0.001660 0.001660 785.139587
[root]
133 -3.858674 1632.053833 1151.861694 -79.048828 -24.357500 -96.184982 1997.598511
134 -47.304073 1664.883911 1175.331909 -78.659752 -24.356968 -96.186676 2038.499756
[chest]
133 -84.512650 -34.090519 0.000000 -1.489262 16.854959 160.841278 91.129311
134 -84.512650 -34.090519 0.000000 -1.602753 16.207371 160.833923 91.129311
[L_mid_tent01]
133 27.443768 22.094902 -250.844482 9.650468 19.286924 77.454796 253.306732
134 27.435751 22.099504 -250.793015 9.704535 20.227665 77.625389 253.255295
[R_mid_tent01]
133 23.228794 24.509907 226.238495 148.048843 -49.624699 93.037621 228.744751
134 23.228794 24.509907 226.238495 149.706650 -49.918701 91.091751 228.744751
[spine01]
133 -0.361383 -0.195265 0.000000 0.001869 0.001420 15.534141 0.410763
134 -0.361383 -0.195265 0.000000 0.001869 0.001420 15.534141 0.410763
[Bip01_Neck]
133 165.484543 71.581718 0.000119 175.896118 1.177290 24.871183 180.302734
134 165.484543 71.581718 0.000119 175.896118 1.177290 24.871183 180.302734
[L_humerus]
133 -13.983130 -135.272980 -120.471481 173.777512 25.442572 -110.484535 181.680161
134 -13.983130 -135.272980 -120.471481 174.234787 25.913395 -109.928749 181.680161
[R_humerus]
133 -13.983309 -135.273102 125.287651 -175.366989 -12.928315 -112.291046 184.909012
134 -13.983309 -135.273102 125.287651 -175.158600 -13.594936 -111.866890 184.909012
[weapon_bone]
133 235.964890 -300.705902 0.000000 0.000000 -89.951546 -128.212341 382.234833
134 235.964890 -300.705902 0.000000 0.000000 -89.951546 -128.212341 382.234833
[Bip01_Head]
133 185.427872 175.145172 14.624140 -2.207241 1.721599 -81.949852 255.486206
134 185.487503 176.152863 14.689212 -1.822591 1.748268 -81.670868 256.224945
[eye_left_bone]
133 -24.626970 125.451866 -64.772606 0.000000 -90.000000 -99.840431 143.318359
134 -24.626970 125.451866 -64.772606 0.000000 -90.000000 -99.840431 143.318359
[eye_right_bone]
133 -24.626970 125.451866 64.327362 0.000000 -89.960434 80.159386 143.117676
134 -24.626970 125.451866 64.327362 0.000000 -89.960434 80.159386 143.117676
[L_forearm]
133 322.776093 0.000000 -0.000119 0.000068 -0.002346 -93.343987 322.776093
134 322.776093 0.000000 -0.000119 0.000043 -0.002347 -92.107086 322.776093
[L_front_hand]
133 241.149185 -0.042021 -3.300071 -178.667953 -1.835447 -27.422350 241.171753
134 241.149185 -0.042021 -3.300071 -178.667953 -1.835447 -27.422350 241.171753
[L_weapon_bone]
133 156.183838 0.000000 0.000000 0.000014 0.000007 0.000001 156.183838
134 156.183838 0.000000 0.000000 0.000014 0.000007 0.000001 156.183838
[L_front_hand01_01]
133 86.095154 20.947098 -0.655860 -0.366594 -0.477154 75.385574 88.609184
134 86.095154 20.947098 -0.655860 -0.366594 -0.477154 75.385574 88.609184
[L_front_hand02_01]
133 86.935165 -11.437475 24.513514 154.403519 -59.888931 -61.371990 91.046425
134 86.935165 -11.437475 24.513514 154.403519 -59.888931 -61.371990 91.046425
[L_front_hand03_01]
133 86.637497 -14.123976 -20.424902 -153.913849 58.118122 -62.702866 90.126129
134 86.637497 -14.123976 -20.424902 -153.913849 58.118122 -62.702866 90.126129
[L_front_hand01_02]
133 71.020905 -0.000179 0.000030 0.000334 -0.002323 -106.379684 71.020905
134 71.020905 -0.000179 0.000030 0.000334 -0.002323 -106.379684 71.020905
[L_front_hand02_02]
133 71.020927 -0.000119 0.000060 0.000334 -0.002323 -106.379684 71.020927
134 71.020927 -0.000119 0.000060 0.000334 -0.002323 -106.379684 71.020927
[L_front_hand03_02]
133 71.020905 -0.000060 0.000060 0.000334 -0.002323 -106.379684 71.020905
134 71.020905 -0.000060 0.000060 0.000334 -0.002323 -106.379684 71.020905
[R_forearm]
133 322.776428 -0.000060 0.000030 0.207300 -0.046423 -77.983360 322.776428
134 322.776428 -0.000060 0.000030 0.205417 -0.049875 -76.634270 322.776428
[R_front_hand]
133 238.847015 -0.006795 2.210259 -116.534431 0.789243 -51.441441 238.857239
134 238.847015 -0.006795 2.210259 -116.534431 0.789243 -51.441441 238.857239
[R_weapon_bone]
133 155.664093 0.002503 -0.000030 0.003487 0.001180 -90.988930 155.664078
134 155.664093 0.002503 -0.000030 0.003487 0.001180 -90.988930 155.664078
[R_front_hand01_01]
133 87.624611 14.231146 22.918642 -154.633499 -59.950619 61.746044 91.683487
134 87.624611 14.231146 22.918642 -154.633499 -59.950619 61.746044 91.683487
[R_front_hand02_01]
133 89.356956 14.367283 -19.491137 154.602661 58.302849 63.744389 92.579636
134 89.356956 14.367283 -19.491137 154.602661 58.302849 63.744389 92.579636
[R_front_hand03_01]
133 87.286232 -22.307278 -0.143439 0.162155 -0.423168 -75.767921 90.091743
134 87.286232 -22.307278 -0.143439 0.162155 -0.423168 -75.767906 90.091743
[R_front_hand01_02]
133 71.020905 0.000060 0.000119 0.002323 -0.000334 106.381714 71.020905
134 71.020905 0.000060 0.000119 0.002323 -0.000334 106.381714 71.020905
[R_front_hand02_02]
133 71.020844 -0.000030 -0.000119 0.002323 -0.000334 106.381714 71.020836
134 71.020844 -0.000030 -0.000119 0.002323 -0.000334 106.381714 71.020836
[R_front_hand03_02]
133 71.020905 0.000000 0.000030 0.002323 -0.000334 106.381714 71.020905
134 71.020905 0.000000 0.000030 0.002323 -0.000334 106.381714 71.020905
[null_rope01_connect]
133 328.732483 0.000000 -0.000238 -89.045761 -69.062141 126.294052 328.732483
134 328.732483 0.000000 -0.000238 -90.203484 -68.649742 127.278732 328.732483
[Rope1_Seg01]
133 6.710817 -4.174408 1.211498 15.220124 57.931992 -156.840042 7.995529
134 6.687852 -4.227530 1.152937 17.824417 56.127716 -153.769791 7.995539
[Rope1_Seg02]
133 139.999863 -0.000179 0.000000 -0.138506 3.971410 -3.898423 139.999863
134 139.999863 -0.000179 0.000000 -0.186778 4.217144 -4.980487 139.999863
[Rope1_Seg03]
133 139.999924 0.000060 -0.000060 -0.482561 6.724952 -6.629294 139.999924
134 139.999924 0.000060 -0.000060 -0.520098 7.312889 -8.692525 139.999924
[Rope1_Seg04]
133 139.999924 -0.000060 -0.000119 -3.264000 15.383275 -12.387917 139.999924
134 139.999924 -0.000060 -0.000119 -3.384164 16.611153 -16.676687 139.999924
[Rope1_Seg05]
133 139.999832 0.000119 -0.000060 -14.333149 24.767828 -20.526123 139.999832
134 139.999832 0.000119 -0.000060 -7.911069 21.118229 -22.575680 139.999832
[Rope1_Seg06]
133 139.999954 0.000119 -0.000060 95.532455 10.990951 -28.620922 139.999954
134 139.999954 0.000119 -0.000060 88.641327 5.622537 -25.832251 139.999954
[Rope1_Seg07]
133 139.999985 0.000060 0.000000 38.969654 -20.853456 -3.151863 139.999985
134 139.999985 0.000060 0.000000 35.175732 -20.883469 -2.828761 139.999985
[Rope1_Seg09]
133 121.602913 0.000119 -0.000089 -89.793175 -1.359789 0.847147 121.602913
134 121.602913 0.000119 -0.000089 -89.793175 -1.359789 0.847147 121.602913
[L_mid_hand01]
133 103.859421 1.038730 8.195221 116.294914 -23.111713 -31.758034 104.187431
134 103.859421 1.038730 8.195221 116.294914 -23.111713 -31.758034 104.187431
[L_mid_hand02]
133 105.572853 -4.139662 -10.864139 -144.219833 17.447468 -35.360519 106.211075
134 105.572853 -4.139662 -10.864139 -144.219833 17.447468 -35.360519 106.211075
[L_mid_hand03]
133 104.641464 17.579376 -3.913581 -17.830780 17.153103 31.982925 106.179977
134 104.641464 17.579376 -3.913581 -17.830780 17.153103 31.982925 106.179977
[null_rope02_connect]
133 328.732849 0.000179 -0.000119 -124.540138 29.464607 13.297942 328.732849
134 328.732849 0.000179 -0.000119 -124.713051 29.556107 11.793596 328.732849
[Rope2_Seg01]
133 0.000007 0.000287 0.000000 41.346809 43.227158 -26.363998 0.000287
134 0.000006 0.000288 0.000000 37.731689 42.369427 -29.959351 0.000288
[Rope2_Seg02]
133 139.999741 -0.000060 -0.000119 6.044018 12.543572 8.684662 139.999756
134 139.999741 -0.000060 -0.000119 5.941225 10.922754 8.122582 139.999756
[Rope2_Seg03]
133 140.000107 0.000030 0.000000 9.291395 31.044905 21.005848 140.000107
134 140.000107 0.000030 0.000000 10.498409 28.832161 20.553320 140.000107
[Rope2_Seg04]
133 139.999802 0.000000 -0.000060 -3.344433 32.340080 18.792295 139.999802
134 139.999802 0.000000 -0.000060 -0.556599 35.530437 22.224512 139.999802
[Rope2_Seg05]
133 139.999985 -0.000060 0.000119 -4.487578 13.211594 1.748870 139.999985
134 139.999985 -0.000060 0.000119 -4.858510 14.596995 2.563326 139.999985
[Rope2_Seg06]
133 139.999893 -0.000030 -0.000119 -5.197916 10.048382 1.592089 139.999893
134 139.999893 -0.000030 -0.000119 -5.222511 11.053803 1.286673 139.999893
[Rope2_Seg07]
133 139.999893 0.000060 -0.000060 -5.863019 6.523020 2.693314 139.999893
134 139.999893 0.000060 -0.000060 -6.354846 7.176682 2.873789 139.999893
[Rope2_Seg09]
133 121.338966 0.000089 -0.000060 33.793236 -1.359788 -0.847141 121.338966
134 121.338966 0.000089 -0.000060 33.793236 -1.359788 -0.847141 121.338966
[R_mid_hand01]
133 104.680779 11.144459 -10.335981 -41.523792 25.424656 28.595957 105.778534
134 104.680779 11.144459 -10.335981 -41.523792 25.424656 28.595957 105.778534
[R_mid_hand02]
133 104.070427 2.443552 8.231699 72.847389 -32.746803 10.013901 104.424065
134 104.070427 2.443552 8.231699 72.847389 -32.746803 10.013901 104.424065
[R_mid_hand03]
133 106.028137 -11.221827 -5.996406 -167.901306 10.259192 -37.009720 106.788818
134 106.028137 -11.221827 -5.996406 -167.901306 10.259192 -37.009720 106.788818
[spine02]
133 129.756927 0.001550 0.000119 -0.245322 -4.052060 -4.355547 129.756927
134 129.756927 0.001550 0.000119 -0.245322 -4.052060 -4.355547 129.756927
[spine03]
133 78.613846 0.087372 -4.898873 0.369659 4.260734 -4.885720 78.766380
134 78.613846 0.087372 -4.898873 0.369659 4.260734 -4.885720 78.766380
[pelvis]
133 169.435242 0.051022 0.000000 -0.010007 -0.191417 -1.897554 169.435257
134 169.435242 0.051022 0.000000 -0.010007 -0.191417 -1.897554 169.435257
[null_rope03_connect]
133 -1.257226 -2.466202 137.391083 -8.053324 -79.490425 118.577972 137.418976
134 -1.257226 -2.466202 137.391083 -6.915542 -79.164314 117.453270 137.418976
[null_rope04_connect]
133 -1.259640 -2.480268 -137.844437 -8.053324 -79.490425 118.577972 137.872513
134 -1.259640 -2.480268 -137.844437 -6.915542 -79.164314 117.453270 137.872513
[Rope3_Seg01]
133 0.000000 0.000000 0.000000 13.278173 14.516706 -93.389305 0.000000
134 0.000000 0.000000 0.000000 15.874181 11.594460 -84.857422 0.000000
[Rope3_Seg02]
133 139.999924 -0.000119 0.000060 0.745104 -3.338308 2.340301 139.999924
134 139.999924 -0.000119 0.000060 0.221930 -2.842504 2.291823 139.999924
[Rope3_Seg03]
133 139.999924 -0.000119 0.000119 1.135906 -5.878364 4.257988 139.999924
134 139.999924 -0.000119 0.000119 0.190730 -5.193865 4.241756 139.999924
[Rope3_Seg04]
133 139.999924 0.000119 0.000000 1.484970 -13.602535 10.559659 139.999924
134 139.999924 0.000119 0.000000 -0.963210 -13.694263 11.583640 139.999924
[Rope3_Seg05]
133 139.999924 -0.000238 0.000060 -9.557144 -37.919151 39.342461 139.999924
134 139.999924 -0.000238 0.000060 -23.774773 -43.470928 50.302517 139.999924
[Rope3_Seg06]
133 139.999893 -0.000119 -0.000060 -4.792931 -20.547617 21.818914 139.999893
134 139.999893 -0.000119 -0.000060 -6.401747 -22.704880 18.995260 139.999893
[Rope3_Seg07]
133 139.999771 0.000060 -0.000119 -1.886482 -8.329903 10.647739 139.999771
134 139.999771 0.000060 -0.000119 -2.865736 -11.921707 11.345616 139.999771
[Rope3_Seg08]
133 139.999985 -0.000060 0.000000 -3.283849 -9.768873 11.552627 139.999985
134 139.999985 -0.000060 0.000000 -4.273953 -14.440736 12.598145 139.999985
[Rope3_Seg09]
133 90.185997 -0.000179 -0.000060 89.793228 -1.359877 -0.847183 90.185997
134 90.185997 -0.000179 -0.000060 89.793228 -1.359877 -0.847183 90.185997
[R_rear_hand01]
133 103.366196 -6.073594 -10.757982 -161.551193 16.666374 -30.088671 104.101845
134 103.366196 -6.073594 -10.757982 -161.551193 16.666374 -30.088671 104.101845
[R_rear_hand02]
133 100.509819 12.039542 -7.992327 -34.280552 19.289745 28.875523 101.543350
134 100.509819 12.039542 -7.992327 -34.280552 19.289745 28.875523 101.543350
[R_rear_hand03]
133 101.539970 5.215704 5.435467 83.366440 -30.933914 7.284830 101.819031
134 101.539970 5.215704 5.435467 83.366440 -30.933914 7.284830 101.819031
[Rope4_Seg01]
133 -0.000005 -0.000009 0.000018 -49.934334 -24.108940 -176.272614 0.000021
134 -0.000004 -0.000009 0.000017 -53.395412 -25.578875 -173.037140 0.000020
[Rope4_Seg02]
133 139.999985 0.000060 0.000119 7.367283 11.202741 -0.041678 139.999985
134 139.999985 0.000060 0.000119 6.819052 11.659551 0.170806 139.999985
[Rope4_Seg03]
133 139.999924 0.000000 -0.000238 16.688173 13.096672 -1.943578 139.999924
134 139.999924 0.000000 -0.000238 16.158575 14.044580 -1.663963 139.999924
[Rope4_Seg04]
133 139.999985 0.000000 0.000119 29.668266 10.028553 -7.835131 139.999985
134 139.999985 0.000000 0.000119 30.499489 11.193878 -7.786973 139.999985
[Rope4_Seg05]
133 139.999802 -0.000060 -0.000119 31.716742 8.699297 -8.991009 139.999802
134 139.999802 -0.000060 -0.000119 32.787163 9.147545 -9.350145 139.999802
[Rope4_Seg06]
133 139.999924 0.000000 0.000060 38.441452 9.251840 -14.581607 139.999924
134 139.999924 0.000000 0.000060 38.702297 9.195930 -15.677540 139.999924
[Rope4_Seg07]
133 139.999802 0.000000 0.000000 17.876808 -1.932281 -14.029729 139.999802
134 139.999802 0.000000 0.000000 17.499578 -2.621096 -14.981133 139.999802
[Rope4_Seg08]
133 139.999924 0.000000 0.000119 4.045481 -3.889363 -7.067317 139.999924
134 139.999924 0.000000 0.000119 3.721132 -4.301842 -7.367557 139.999924
[Rope4_Seg09]
133 90.185791 0.000060 0.000060 -135.617828 2.228885 0.850567 90.185791
134 90.185791 0.000060 0.000060 -135.617828 2.228885 0.850567 90.185791
[L_rear_hand01]
133 101.696655 -8.392275 -7.654577 -34.454281 -18.946800 151.655121 102.329041
134 101.696655 -8.392275 -7.654577 -34.454281 -18.946800 151.655121 102.329041
[L_rear_hand02]
133 102.726799 -1.568258 5.773216 83.407906 30.330435 172.796509 102.900848
134 102.726799 -1.568258 5.773216 83.407906 30.330435 172.796509 102.900848
[L_rear_hand03]
133 104.552910 9.721220 -10.420293 -161.379868 -16.473232 -150.512238 105.519653
134 104.552910 9.721220 -10.420293 -161.379868 -16.473232 -150.512238 105.519653
